<?xml version="1.0" encoding="utf-8"?>
<!-- Generator: Adobe Illustrator 27.0.0, SVG Export Plug-In . SVG Version: 6.00 Build 0)  -->
<svg version="1.1" id="Capa_1" xmlns="http://www.w3.org/2000/svg" xmlns:xlink="http://www.w3.org/1999/xlink" x="0px" y="0px"
	 viewBox="0 0 595.3 323.9" style="enable-background:new 0 0 595.3 323.9;" xml:space="preserve">
<style type="text/css">
	.st0{fill:#BBCEBB;}
	.st1{fill:#FDEEF1;}
	.st2{fill:#EC8492;}
	.st3{fill:#010202;}
</style>
<path class="st0" d="M99.1,116h375.2c5.3,0,9.5,4.3,9.5,9.5v52c0,5.3-4.3,9.5-9.5,9.5H99.1c-5.3,0-9.5-4.3-9.5-9.5v-52
	C89.5,120.3,93.8,116,99.1,116z"/>
<path class="st1" d="M115.1,133.3h342.7c5.3,0,9.5,4.3,9.5,9.5v16.9c0,5.3-4.3,9.5-9.5,9.5H115.1c-5.3,0-9.5-4.3-9.5-9.5v-16.9
	C105.6,137.6,109.8,133.3,115.1,133.3z"/>
<path class="st2" d="M115.1,133.3h54.6c5.3,0,9.5,4.3,9.5,9.5v16.9c0,5.3-4.3,9.5-9.5,9.5h-54.6c-5.3,0-9.5-4.3-9.5-9.5v-16.9
	C105.6,137.6,109.8,133.3,115.1,133.3z"/>
<path class="st3" d="M126.3,147.2c0,0.3,0.1,0.7,0.2,1.1c0.2,0.4,0.3,0.7,0.5,0.9c-0.9,0-1.6-0.2-2.1-0.6c-0.5-0.4-0.8-0.8-0.8-1.5
	c0-0.8,0.4-1.4,1.1-1.9c0.7-0.5,1.6-0.7,2.8-0.7c1.3,0,2.2,0.3,3,0.8c0.7,0.5,1.1,1.2,1.1,2.1c0,0.9-0.5,1.9-1.5,3
	c-1,1.1-2.5,2.3-4.5,3.6h6.3c0,0.4,0,0.7-0.1,1c-0.1,0.3-0.2,0.6-0.4,0.7h-7.6l-0.5-0.8c1.5-1.3,2.6-2.3,3.5-3.2
	c0.8-0.9,1.4-1.6,1.8-2.3c0.3-0.7,0.5-1.4,0.5-2.1c0-0.7-0.1-1.2-0.4-1.7c-0.3-0.5-0.7-0.7-1.1-0.7c-0.5,0-0.9,0.2-1.2,0.6
	C126.4,146.1,126.3,146.6,126.3,147.2z M133.5,150.3c0-1.1,0.2-2.1,0.6-3c0.4-0.9,1-1.6,1.7-2c0.7-0.5,1.6-0.8,2.6-0.8
	c1.4,0,2.5,0.5,3.3,1.5c0.8,1,1.2,2.3,1.2,4c0,1.2-0.2,2.2-0.6,3.1c-0.4,0.9-1,1.6-1.7,2.2c-0.7,0.5-1.6,0.8-2.5,0.8
	c-1.4,0-2.5-0.5-3.3-1.6C133.9,153.4,133.5,152,133.5,150.3z M136,150.3c0,1.6,0.2,2.9,0.6,3.8c0.4,0.9,1,1.4,1.7,1.4
	c0.7,0,1.3-0.5,1.7-1.4c0.4-1,0.6-2.2,0.6-3.8s-0.2-2.8-0.6-3.8c-0.4-1-1-1.5-1.7-1.5c-0.7,0-1.3,0.5-1.7,1.5
	C136.1,147.4,136,148.7,136,150.3z M144.3,148c0-1,0.3-1.9,0.9-2.5c0.6-0.7,1.3-1,2.3-1c0.9,0,1.6,0.3,2.1,0.9
	c0.5,0.6,0.8,1.4,0.8,2.4c0,1.1-0.3,2-0.9,2.7c-0.6,0.7-1.3,1-2.2,1c-0.9,0-1.6-0.3-2.1-1C144.5,150,144.3,149.1,144.3,148z
	 M146.1,148.1c0,0.9,0.1,1.6,0.3,2.1c0.2,0.5,0.5,0.8,0.8,0.8c0.4,0,0.6-0.3,0.8-0.8c0.2-0.5,0.3-1.2,0.3-2.2c0-0.9-0.1-1.7-0.3-2.2
	c-0.2-0.5-0.5-0.8-0.8-0.8c-0.3,0-0.6,0.3-0.8,0.8C146.2,146.4,146.1,147.1,146.1,148.1z M154.3,144.3h0.8l-4.6,12.1h-0.8
	L154.3,144.3z M154.4,152.6c0-1,0.3-1.9,0.9-2.5c0.6-0.7,1.3-1,2.3-1c0.9,0,1.6,0.3,2.1,0.9c0.5,0.6,0.8,1.4,0.8,2.4
	c0,1.1-0.3,2-0.9,2.7c-0.6,0.7-1.3,1-2.2,1c-0.9,0-1.6-0.3-2.1-1C154.7,154.5,154.4,153.6,154.4,152.6z M156.3,152.6
	c0,0.9,0.1,1.6,0.3,2.1c0.2,0.5,0.5,0.8,0.8,0.8c0.4,0,0.6-0.3,0.8-0.8c0.2-0.5,0.3-1.2,0.3-2.2c0-0.9-0.1-1.7-0.3-2.2
	c-0.2-0.5-0.5-0.8-0.8-0.8c-0.3,0-0.6,0.3-0.8,0.8C156.4,150.9,156.3,151.7,156.3,152.6z"/>
</svg>
