<svg width="1512" height="351" viewBox="0 0 1512 351" fill="none" xmlns="http://www.w3.org/2000/svg">
  <path d="M454.931 33.8976C391.111 -25.7597 325.567 6.46869 301.85 31.3259C277.415 56.1831 216.901 93.555 153.081 33.8977C89.2612 -25.7597 23.7168 6.46883 0 31.326V351H1391.85H1512V14C1487.56 38.8573 1424.3 93.5534 1360.48 33.896C1296.66 -25.7613 1231.12 6.46719 1207.4 31.3244C1182.96 56.1816 1122.45 93.5535 1058.63 33.8961C994.811 -25.7612 929.266 6.46849 905.549 31.3257C881.114 56.1829 820.6 93.5548 756.781 33.8975C692.961 -25.7599 627.417 6.46864 603.7 31.3259C579.264 56.1831 518.751 93.5549 454.931 33.8976Z" fill="#CDCEEC"/>
</svg>