<?xml version="1.0" encoding="utf-8"?>
<!-- Generator: Adobe Illustrator 27.0.0, SVG Export Plug-In . SVG Version: 6.00 Build 0)  -->
<svg version="1.1" id="Capa_1" xmlns="http://www.w3.org/2000/svg" xmlns:xlink="http://www.w3.org/1999/xlink" x="0px" y="0px"
	 viewBox="0 0 1512.3 1108.9" style="enable-background:new 0 0 1512.3 1108.9;" xml:space="preserve">
<style type="text/css">
	.st0{fill:#CDCEE9;}
	.st1{fill:#F5DDED;}
	.st2{fill:none;}
</style>
<path class="st0" d="M454.5,1056.8c-63.8,59.7-129.4,27.4-153.1,2.6c-24.4-24.9-84.9-62.2-148.8-2.6
	c-63.8,59.7-129.4,27.4-153.1,2.6V739.7h1391.8h120.2v337c-24.4-24.9-87.7-79.6-151.5-19.9s-129.4,27.4-153.1,2.6
	c-24.4-24.9-85-62.2-148.8-2.6c-63.8,59.7-129.4,27.4-153.1,2.6c-24.4-24.9-84.9-62.2-148.8-2.6c-63.8,59.7-129.4,27.4-153.1,2.6
	C578.8,1034.5,518.3,997.1,454.5,1056.8z"/>
<rect x="-0.5" y="-0.3" class="st0" width="1512" height="971"/>
<path class="st1" d="M454.5,316.8c-63.8,59.7-129.4,27.4-153.1,2.6c-24.4-24.9-84.9-62.2-148.8-2.6c-63.8,59.7-129.4,27.4-153.1,2.6
	V-0.3h1391.8h120.2v337c-24.4-24.9-87.7-79.6-151.5-19.9s-129.4,27.4-153.1,2.6c-24.4-24.9-85-62.2-148.8-2.6
	c-63.8,59.7-129.4,27.4-153.1,2.6c-24.4-24.9-84.9-62.2-148.8-2.6c-63.8,59.7-129.4,27.4-153.1,2.6
	C578.8,294.5,518.3,257.1,454.5,316.8z"/>
<rect x="687.5" y="841.7" class="st2" width="136" height="143"/>
<rect x="317.1" y="845.2" transform="matrix(0.4107 -0.9118 0.9118 0.4107 -603.6472 892.4518)" class="st2" width="143" height="136"/>
<rect x="1304.6" y="752.8" transform="matrix(0.6094 -0.7929 0.7929 0.6094 -113.2881 1411.6617)" class="st2" width="143" height="136"/>
<rect x="68" y="636.3" transform="matrix(0.7929 -0.6094 0.6094 0.7929 -403.1643 229.4964)" class="st2" width="136" height="143"/>
<rect x="1027.6" y="842" transform="matrix(0.916 -0.4013 0.4013 0.916 -274.4858 516.4153)" class="st2" width="136" height="143"/>
<image style="overflow:visible;opacity:0.8;enable-background:new    ;" width="1050" height="1104" xlink:href="sapito.png"  transform="matrix(0.1694 0 0 0.1694 51 621)">
</image>
<image style="overflow:visible;opacity:0.8;enable-background:new    ;" width="1050" height="1104" xlink:href="sapito.png"  transform="matrix(-0.1694 0 0 0.1694 1460.8533 621)">
</image>
<image style="overflow:visible;opacity:0.8;enable-background:new    ;" width="1050" height="1104" xlink:href="sapito.png"  transform="matrix(0.1694 0 0 0.1694 671 808)">
</image>
<image style="overflow:visible;opacity:0.8;enable-background:new    ;" width="1050" height="1104" xlink:href="sapito.png"  transform="matrix(-0.1598 5.604236e-02 5.604236e-02 0.1598 1177.9095 783.8437)">
</image>
<image style="overflow:visible;opacity:0.8;enable-background:new    ;" width="1050" height="1104" xlink:href="sapito.png"  transform="matrix(0.1598 5.604236e-02 -5.604236e-02 0.1598 346.8708 784)">
</image>
</svg>
