<svg width="1512" height="971" viewBox="0 0 1512 971" fill="none" xmlns="http://www.w3.org/2000/svg">
<rect width="1512" height="971" fill="#CDCEEC"/>
<path d="M454.931 317.102C391.111 376.76 325.567 344.531 301.85 319.674C277.415 294.817 216.901 257.445 153.081 317.102C89.2612 376.76 23.7168 344.531 0 319.674V-3.05176e-05H1391.85H1512V337C1487.56 312.143 1424.3 257.447 1360.48 317.104C1296.66 376.761 1231.12 344.533 1207.4 319.676C1182.96 294.818 1122.45 257.447 1058.63 317.104C994.811 376.761 929.266 344.532 905.549 319.674C881.114 294.817 820.6 257.445 756.781 317.103C692.961 376.76 627.417 344.531 603.7 319.674C579.264 294.817 518.751 257.445 454.931 317.102Z" fill="#FFEFF2"/>
</svg>