<?xml version="1.0" standalone="no"?>
<!DOCTYPE svg PUBLIC "-//W3C//DTD SVG 20010904//EN"
 "http://www.w3.org/TR/2001/REC-SVG-20010904/DTD/svg10.dtd">
<svg version="1.0" xmlns="http://www.w3.org/2000/svg"
 width="1050.000000pt" height="1104.000000pt" viewBox="0 0 1050.000000 1104.000000"
 preserveAspectRatio="xMidYMid meet">
<metadata>
Created by potrace 1.16, written by Peter Selinger 2001-2019
</metadata>
<g transform="translate(0.000000,1104.000000) scale(0.100000,-0.100000)"
fill="#000000" stroke="none">
<path d="M4969 10763 c-35 -90 -52 -153 -80 -297 -16 -89 -61 -280 -99 -426
-38 -146 -113 -438 -165 -650 -53 -212 -132 -513 -175 -670 -43 -157 -90 -331
-104 -385 -14 -55 -57 -190 -96 -300 -81 -225 -107 -319 -116 -418 -9 -84 -7
-83 -184 -96 -116 -8 -138 -12 -194 -40 -78 -38 -194 -156 -255 -258 -177
-298 -282 -766 -298 -1320 -4 -157 -9 -213 -18 -213 -7 0 -30 30 -51 66 -92
157 -284 278 -548 344 -350 88 -712 56 -1000 -91 -256 -130 -409 -305 -478
-546 -30 -105 -32 -344 -4 -473 44 -203 102 -313 225 -425 199 -181 211 -187
365 -209 44 -7 81 -16 83 -21 2 -6 -53 -11 -135 -13 -616 -13 -929 -190 -1078
-608 -52 -146 -68 -246 -68 -429 0 -241 35 -390 138 -590 75 -146 158 -228
297 -294 169 -80 332 -112 564 -113 471 0 734 140 987 524 57 86 74 106 79 91
4 -10 8 -103 8 -208 3 -546 57 -770 244 -1002 115 -144 305 -267 482 -314 103
-27 324 -37 433 -19 430 72 789 388 884 778 12 50 26 92 30 92 4 0 8 -44 8
-99 0 -372 192 -725 471 -864 109 -55 183 -76 294 -83 193 -14 464 86 656 241
224 181 379 498 420 859 6 55 14 110 19 121 15 43 50 -58 106 -305 21 -94 88
-234 156 -324 178 -237 473 -334 807 -266 98 20 364 105 476 153 255 108 462
300 570 530 149 317 127 715 -60 1087 -19 39 -32 70 -28 70 4 0 68 -25 142
-55 181 -73 272 -95 385 -95 196 0 389 77 588 232 252 197 470 520 519 767 7
36 10 103 7 164 -6 117 -40 221 -107 323 -157 241 -482 439 -753 461 -126 10
-262 -22 -480 -112 -11 -4 -18 -3 -18 3 0 10 50 54 258 227 144 120 205 211
253 378 29 103 36 281 15 372 -67 283 -308 491 -685 590 -52 14 -116 28 -142
31 -58 8 -64 20 -54 103 10 78 53 210 152 461 152 383 195 518 209 661 7 74
-10 169 -31 169 -46 0 -89 -80 -118 -220 -13 -63 -262 -814 -355 -1070 -26
-71 -30 -76 -77 -99 -28 -13 -147 -48 -265 -78 -129 -32 -243 -67 -285 -87
-98 -46 -212 -135 -357 -278 -180 -178 -310 -298 -318 -293 -4 3 -12 60 -19
127 -75 814 -80 851 -117 946 -58 146 -139 269 -248 377 -116 115 -164 136
-390 170 -167 25 -206 33 -206 40 0 2 -32 122 -70 269 -75 284 -97 348 -240
721 -129 334 -176 483 -270 845 -44 173 -103 385 -130 470 -27 85 -76 260
-110 389 -102 394 -154 522 -213 529 -22 3 -29 -2 -38 -25z m-92 -1034 c7 -35
18 -87 24 -116 l10 -51 74 -17 c41 -9 77 -21 81 -27 12 -19 -32 -63 -82 -80
l-49 -16 -9 -106 c-5 -58 -12 -106 -16 -106 -20 0 -122 127 -154 191 -61 121
-47 219 50 351 20 27 41 47 47 45 6 -2 17 -32 24 -68z m643 -814 c19 -51 40
-158 40 -207 0 -69 -38 -230 -58 -246 -15 -11 -18 -10 -24 10 -3 13 -6 55 -7
94 l-1 71 -76 5 c-41 3 -79 9 -84 14 -6 6 16 36 55 78 56 59 98 126 119 189 8
25 25 21 36 -8z m-767 -710 c31 -96 33 -99 67 -108 19 -5 59 -7 88 -4 28 3 52
2 52 -2 0 -18 -46 -54 -111 -86 -38 -20 -69 -37 -69 -38 0 -2 29 -73 64 -158
36 -84 63 -155 61 -157 -2 -2 -18 4 -36 14 -48 24 -135 110 -181 177 -54 80
-67 78 -178 -28 -87 -82 -145 -123 -158 -110 -3 3 20 58 52 123 l58 117 -27
20 c-60 43 -65 50 -59 72 5 18 16 23 72 29 108 11 103 6 157 161 27 76 55 154
63 173 l15 35 19 -65 c11 -36 34 -110 51 -165z m1071 -542 c3 -16 13 -73 21
-128 9 -55 18 -107 21 -116 3 -11 -33 -41 -127 -103 -72 -48 -132 -86 -134
-84 -18 20 -112 229 -105 233 9 5 109 -9 151 -21 13 -3 33 26 85 120 38 69 72
126 76 126 3 0 9 -12 12 -27z m-1738 -253 c104 -27 196 -71 347 -168 122 -79
215 -131 269 -151 49 -18 415 -71 492 -71 149 0 323 35 538 109 151 53 207 78
320 145 51 30 120 62 152 72 196 55 366 -65 486 -344 172 -400 239 -1134 154
-1694 -9 -60 -17 -108 -18 -108 -1 0 -62 -27 -135 -60 -74 -33 -139 -60 -146
-60 -6 0 -40 79 -75 177 -73 203 -120 283 -228 385 -244 230 -577 278 -885
129 -45 -22 -120 -61 -167 -86 -134 -71 -170 -79 -360 -80 -91 0 -233 4 -315
9 -178 10 -260 0 -352 -45 -78 -38 -129 -95 -212 -235 -71 -122 -117 -183
-160 -213 -39 -28 -450 -97 -468 -78 -59 61 -53 477 12 862 16 95 26 204 30
340 6 167 12 222 36 335 78 358 190 580 366 725 72 59 186 124 219 125 11 0
56 -9 100 -20z m4524 -897 c374 -106 596 -381 577 -712 -6 -102 -41 -240 -80
-316 -12 -24 -138 -166 -284 -320 -149 -157 -263 -285 -263 -296 0 -10 8 -23
18 -28 15 -8 31 -1 78 30 69 46 180 91 302 122 76 19 112 22 292 21 190 0 212
-2 305 -27 238 -64 415 -193 487 -355 84 -188 45 -460 -101 -711 -168 -286
-430 -499 -708 -572 -142 -38 -375 -36 -491 4 -20 7 -144 77 -275 156 -132 78
-240 141 -242 139 -2 -2 37 -55 86 -118 49 -63 101 -136 114 -161 13 -26 47
-125 76 -220 55 -188 92 -278 135 -335 33 -42 33 -58 3 -206 -51 -258 -175
-492 -342 -644 -311 -285 -845 -428 -1137 -305 -267 112 -499 473 -589 916
-23 116 -29 130 -48 133 -19 3 -23 -4 -33 -55 -30 -146 -105 -439 -142 -548
-141 -426 -331 -652 -643 -766 -85 -31 -98 -33 -225 -33 -122 -1 -142 2 -208
26 -105 38 -175 83 -258 163 -117 115 -202 264 -241 426 -15 63 -18 119 -18
382 0 226 -3 307 -12 307 -14 0 -58 -52 -80 -94 -9 -17 -36 -87 -60 -156 -116
-332 -381 -708 -584 -827 -30 -18 -94 -44 -144 -59 -81 -25 -105 -28 -245 -28
-170 -1 -251 15 -396 75 -168 70 -363 236 -447 379 -97 167 -137 423 -137 887
0 239 0 242 -22 257 -31 22 -54 20 -103 -8 -47 -28 -94 -86 -184 -227 -82
-129 -180 -205 -370 -288 -192 -85 -341 -120 -541 -128 -358 -14 -539 91 -686
401 -129 274 -147 572 -49 846 80 223 266 424 474 511 59 25 95 31 297 49 126
12 254 25 284 30 48 7 74 3 210 -32 91 -23 191 -42 242 -45 l88 -6 15 36 c8
20 12 43 9 52 -13 34 -110 69 -366 134 -245 61 -318 94 -422 192 -169 158
-276 372 -308 618 -19 146 17 336 87 456 106 179 362 332 656 390 179 36 432
29 607 -16 273 -70 495 -242 579 -449 35 -87 46 -177 52 -430 l6 -235 33 3
c18 1 77 22 130 46 149 68 205 80 367 81 154 0 228 -16 350 -77 182 -91 379
-301 491 -520 40 -78 52 -71 174 103 216 309 345 405 594 440 295 41 638 -160
738 -433 17 -48 25 -58 50 -63 16 -4 31 -5 32 -3 1 1 13 32 26 68 59 167 188
328 361 452 78 56 247 146 337 179 61 23 63 25 78 74 8 28 19 124 24 220 5 94
16 192 24 219 44 144 277 377 581 580 110 74 364 203 463 235 73 25 199 48
208 39 16 -17 -69 -314 -121 -423 -49 -103 -69 -121 -144 -130 -54 -6 -71 -13
-114 -49 -114 -92 -200 -251 -257 -474 l-11 -42 -31 16 c-48 25 -109 14 -175
-32 -69 -47 -83 -69 -90 -137 -5 -45 -1 -64 22 -115 l27 -60 -26 -44 c-14 -24
-33 -72 -41 -106 -36 -138 18 -235 146 -263 30 -7 58 -15 62 -19 4 -4 15 -51
23 -104 21 -145 40 -173 120 -182 46 -5 51 -4 82 29 39 41 37 43 -57 67 l-66
16 1 100 c0 54 3 126 7 159 9 84 3 91 -66 71 -136 -39 -197 -8 -197 101 0 48
13 67 64 97 29 17 48 36 55 57 6 18 11 33 11 35 0 2 -20 15 -45 30 -105 61
-78 129 75 194 41 17 80 34 86 36 14 6 30 -40 39 -111 3 -27 -1 -123 -9 -213
-9 -89 -16 -167 -16 -173 0 -5 20 -19 45 -30 l45 -20 77 52 c177 119 314 239
395 347 138 185 148 392 28 567 l-33 48 36 111 c20 61 54 177 76 258 42 155
90 288 117 326 15 21 21 23 68 17 28 -4 89 -18 136 -32z m-551 -760 c59 -117
29 -192 -129 -328 -70 -60 -95 -90 -125 -145 -20 -39 -41 -70 -47 -70 -17 0
-2 213 22 304 27 101 61 167 117 227 43 46 49 49 94 49 46 0 50 -2 68 -37z
m168 -92 c32 -112 -6 -237 -115 -380 -58 -76 -221 -221 -247 -221 -11 0 -15
12 -15 45 0 57 32 95 152 177 137 94 165 149 175 352 5 104 8 117 20 100 8
-10 21 -43 30 -73z m-2457 58 c190 -9 219 -13 250 -31 156 -94 310 -321 360
-528 31 -131 28 -156 -23 -215 -51 -59 -139 -178 -186 -252 -18 -29 -39 -53
-46 -53 -13 0 -69 63 -145 165 -67 89 -144 162 -201 191 -141 71 -358 88 -524
39 -229 -67 -447 -229 -547 -407 -36 -66 -74 -116 -81 -108 -2 3 -46 64 -97
135 -125 175 -232 280 -336 332 -43 22 -110 48 -147 58 -67 18 -67 18 -67 54
0 54 52 135 146 228 178 176 254 202 489 168 127 -19 215 -19 335 0 164 24
327 86 490 183 47 28 92 51 100 52 8 0 112 -5 230 -11z"/>
<path d="M3670 7023 c-38 -59 -54 -116 -45 -160 3 -19 27 -66 51 -105 59 -91
58 -89 83 -258 28 -187 61 -262 127 -291 84 -38 163 8 203 116 56 150 45 410
-24 546 -25 50 -66 89 -91 89 -12 0 -55 -22 -96 -50 -40 -27 -78 -50 -85 -50
-18 0 -33 57 -33 126 0 52 -3 65 -19 74 -32 17 -40 12 -71 -37z"/>
<path d="M6416 6895 c-47 -47 -92 -85 -100 -85 -18 0 -60 53 -80 102 -17 39
-32 48 -79 48 -39 0 -71 -41 -110 -140 -81 -205 -75 -439 13 -531 33 -35 42
-39 87 -39 42 0 55 5 91 35 54 47 81 119 89 241 l6 93 54 36 c101 67 157 140
192 247 17 51 2 78 -43 78 -28 0 -46 -13 -120 -85z"/>
<path d="M5244 6219 c-33 -32 -87 -40 -177 -24 -43 7 -85 11 -92 9 -8 -3 -19
-29 -25 -57 l-11 -51 43 -43 c24 -25 58 -54 77 -65 31 -19 38 -20 79 -9 86 23
163 108 177 196 6 37 5 42 -20 53 -32 15 -27 16 -51 -9z"/>
<path d="M8438 4938 c-3 -91 -1 -88 -72 -76 -16 2 -30 -16 -71 -94 -28 -53
-59 -106 -70 -119 -28 -30 -93 -59 -137 -59 -53 0 -68 -29 -36 -70 20 -27 27
-30 62 -25 66 10 132 53 215 144 43 47 96 95 117 106 33 18 41 28 51 70 16 69
16 170 1 183 -7 5 -23 13 -35 16 -21 7 -22 5 -25 -76z"/>
<path d="M9577 9699 c-9 -6 -27 -42 -39 -82 -30 -94 -31 -275 -4 -352 23 -62
76 -145 94 -145 20 0 71 118 88 206 25 130 4 253 -57 327 -38 46 -59 58 -82
46z"/>
<path d="M9201 9047 c-40 -84 -97 -279 -103 -352 l-3 -40 47 -3 46 -3 27 -64
c29 -68 57 -101 74 -90 6 3 19 21 28 38 62 121 68 377 11 510 -19 44 -58 87
-79 87 -5 0 -26 -37 -48 -83z m84 -192 c18 -86 16 -145 -6 -171 -19 -23 -36
-16 -58 22 l-22 36 22 99 c13 57 27 99 34 99 7 0 20 -37 30 -85z"/>
<path d="M9736 9007 c-55 -122 -141 -446 -152 -571 l-6 -73 46 -27 c52 -30
111 -110 156 -212 29 -63 31 -65 62 -62 33 3 33 3 50 88 54 266 42 499 -39
770 -46 156 -77 179 -117 87z m76 -222 c19 -68 24 -185 15 -310 -10 -121 -19
-165 -35 -165 -5 0 -32 29 -59 65 l-50 65 14 73 c13 68 56 272 69 327 5 24 6
24 20 5 8 -11 19 -38 26 -60z"/>
</g>
</svg>
