<?xml version="1.0" encoding="utf-8"?>
<!-- Generator: Adobe Illustrator 27.0.0, SVG Export Plug-In . SVG Version: 6.00 Build 0)  -->
<svg version="1.1" id="Capa_1" xmlns="http://www.w3.org/2000/svg" xmlns:xlink="http://www.w3.org/1999/xlink" x="0px" y="0px"
	 viewBox="0 0 2714.9 4940.5" style="enable-background:new 0 0 2714.9 4940.5;" xml:space="preserve">
<style type="text/css">
	.st0{fill:#E78142;}
</style>
<rect y="-2" class="st0" width="35" height="35"/>
<rect x="35" y="33" class="st0" width="35" height="35"/>
<rect x="70" y="-2" class="st0" width="35" height="35"/>
<rect x="105" y="33" class="st0" width="35" height="35"/>
<rect x="140" y="-2" class="st0" width="35" height="35"/>
<rect x="175" y="33" class="st0" width="35" height="35"/>
<rect x="210" y="-2" class="st0" width="35" height="35"/>
<rect x="245" y="33" class="st0" width="35" height="35"/>
<rect x="280" y="-2" class="st0" width="35" height="35"/>
<rect x="315" y="33" class="st0" width="35" height="35"/>
<rect x="350" y="-2" class="st0" width="35" height="35"/>
<rect x="385" y="33" class="st0" width="35" height="35"/>
<rect x="420" y="-2" class="st0" width="35" height="35"/>
<rect x="455" y="33" class="st0" width="35" height="35"/>
<rect x="490" y="-2" class="st0" width="35" height="35"/>
<rect x="525" y="33" class="st0" width="35" height="35"/>
<rect x="560" y="-2" class="st0" width="35" height="35"/>
<rect x="595" y="33" class="st0" width="35" height="35"/>
<rect x="630" y="-2" class="st0" width="35" height="35"/>
<rect x="665" y="33" class="st0" width="35" height="35"/>
<rect x="700" y="-2" class="st0" width="35" height="35"/>
<rect x="735" y="33" class="st0" width="35" height="35"/>
<rect x="770" y="-2" class="st0" width="35" height="35"/>
<rect x="805" y="33" class="st0" width="35" height="35"/>
<rect x="840" y="-2" class="st0" width="35" height="35"/>
<rect x="875" y="33" class="st0" width="35" height="35"/>
<rect x="910" y="-2" class="st0" width="35" height="35"/>
<rect x="945" y="33" class="st0" width="35" height="35"/>
<rect x="980" y="-2" class="st0" width="35" height="35"/>
<rect x="1015" y="33" class="st0" width="35" height="35"/>
<rect x="1050" y="-2" class="st0" width="35" height="35"/>
<rect x="1085" y="33" class="st0" width="35" height="35"/>
<rect x="1120" y="-2" class="st0" width="35" height="35"/>
<rect x="1155" y="33" class="st0" width="35" height="35"/>
<rect x="1190" y="-2" class="st0" width="35" height="35"/>
<rect x="1225" y="33" class="st0" width="35" height="35"/>
<rect x="1260" y="-2" class="st0" width="35" height="35"/>
<rect x="1295" y="33" class="st0" width="35" height="35"/>
<rect x="1330" y="-2" class="st0" width="35" height="35"/>
<rect x="1365" y="33" class="st0" width="35" height="35"/>
<rect x="1400" y="-2" class="st0" width="35" height="35"/>
<rect x="1435" y="33" class="st0" width="35" height="35"/>
<rect x="1470" y="-2" class="st0" width="35" height="35"/>
<rect x="1505" y="33" class="st0" width="35" height="35"/>
<rect y="68" class="st0" width="35" height="35"/>
<rect x="35" y="103" class="st0" width="35" height="35"/>
<rect x="70" y="68" class="st0" width="35" height="35"/>
<rect x="105" y="103" class="st0" width="35" height="35"/>
<rect x="140" y="68" class="st0" width="35" height="35"/>
<rect x="175" y="103" class="st0" width="35" height="35"/>
<rect x="210" y="68" class="st0" width="35" height="35"/>
<rect x="245" y="103" class="st0" width="35" height="35"/>
<rect x="280" y="68" class="st0" width="35" height="35"/>
<rect x="315" y="103" class="st0" width="35" height="35"/>
<rect x="350" y="68" class="st0" width="35" height="35"/>
<rect x="385" y="103" class="st0" width="35" height="35"/>
<rect x="420" y="68" class="st0" width="35" height="35"/>
<rect x="455" y="103" class="st0" width="35" height="35"/>
<rect x="490" y="68" class="st0" width="35" height="35"/>
<rect x="525" y="103" class="st0" width="35" height="35"/>
<rect x="560" y="68" class="st0" width="35" height="35"/>
<rect x="595" y="103" class="st0" width="35" height="35"/>
<rect x="630" y="68" class="st0" width="35" height="35"/>
<rect x="665" y="103" class="st0" width="35" height="35"/>
<rect x="700" y="68" class="st0" width="35" height="35"/>
<rect x="735" y="103" class="st0" width="35" height="35"/>
<rect x="770" y="68" class="st0" width="35" height="35"/>
<rect x="805" y="103" class="st0" width="35" height="35"/>
<rect x="840" y="68" class="st0" width="35" height="35"/>
<rect x="875" y="103" class="st0" width="35" height="35"/>
<rect x="910" y="68" class="st0" width="35" height="35"/>
<rect x="945" y="103" class="st0" width="35" height="35"/>
<rect x="980" y="68" class="st0" width="35" height="35"/>
<rect x="1015" y="103" class="st0" width="35" height="35"/>
<rect x="1050" y="68" class="st0" width="35" height="35"/>
<rect x="1085" y="103" class="st0" width="35" height="35"/>
<rect x="1120" y="68" class="st0" width="35" height="35"/>
<rect x="1155" y="103" class="st0" width="35" height="35"/>
<rect x="1190" y="68" class="st0" width="35" height="35"/>
<rect x="1225" y="103" class="st0" width="35" height="35"/>
<rect x="1260" y="68" class="st0" width="35" height="35"/>
<rect x="1295" y="103" class="st0" width="35" height="35"/>
<rect x="1330" y="68" class="st0" width="35" height="35"/>
<rect x="1365" y="103" class="st0" width="35" height="35"/>
<rect x="1400" y="68" class="st0" width="35" height="35"/>
<rect x="1435" y="103" class="st0" width="35" height="35"/>
<rect x="1470" y="68" class="st0" width="35" height="35"/>
<rect x="1505" y="103" class="st0" width="35" height="35"/>
<rect x="1190" y="-2" class="st0" width="35" height="35"/>
<rect x="1225" y="33" class="st0" width="35" height="35"/>
<rect x="1260" y="-2" class="st0" width="35" height="35"/>
<rect x="1295" y="33" class="st0" width="35" height="35"/>
<rect x="1330" y="-2" class="st0" width="35" height="35"/>
<rect x="1365" y="33" class="st0" width="35" height="35"/>
<rect x="1400" y="-2" class="st0" width="35" height="35"/>
<rect x="1435" y="33" class="st0" width="35" height="35"/>
<rect x="1470" y="-2" class="st0" width="35" height="35"/>
<rect x="1505" y="33" class="st0" width="35" height="35"/>
<rect x="1540" y="-2" class="st0" width="35" height="35"/>
<rect x="1575" y="33" class="st0" width="35" height="35"/>
<rect x="1610" y="-2" class="st0" width="35" height="35"/>
<rect x="1645" y="33" class="st0" width="35" height="35"/>
<rect x="1680" y="-2" class="st0" width="35" height="35"/>
<rect x="1715" y="33" class="st0" width="35" height="35"/>
<rect x="1750" y="-2" class="st0" width="35" height="35"/>
<rect x="1785" y="33" class="st0" width="35" height="35"/>
<rect x="1820" y="-2" class="st0" width="35" height="35"/>
<rect x="1855" y="33" class="st0" width="35" height="35"/>
<rect x="1890" y="-2" class="st0" width="35" height="35"/>
<rect x="1925" y="33" class="st0" width="35" height="35"/>
<rect x="1960" y="-2" class="st0" width="35" height="35"/>
<rect x="1995" y="33" class="st0" width="35" height="35"/>
<rect x="2030" y="-2" class="st0" width="35" height="35"/>
<rect x="2065" y="33" class="st0" width="35" height="35"/>
<rect x="2100" y="-2" class="st0" width="35" height="35"/>
<rect x="2135" y="33" class="st0" width="35" height="35"/>
<rect x="2170" y="-2" class="st0" width="35" height="35"/>
<rect x="2205" y="33" class="st0" width="35" height="35"/>
<rect x="2240" y="-2" class="st0" width="35" height="35"/>
<rect x="2275" y="33" class="st0" width="35" height="35"/>
<rect x="2310" y="-2" class="st0" width="35" height="35"/>
<rect x="2345" y="33" class="st0" width="35" height="35"/>
<rect x="2380" y="-2" class="st0" width="35" height="35"/>
<rect x="2415" y="33" class="st0" width="35" height="35"/>
<rect x="2450" y="-2" class="st0" width="35" height="35"/>
<rect x="2485" y="33" class="st0" width="35" height="35"/>
<rect x="2520" y="-2" class="st0" width="35" height="35"/>
<rect x="2555" y="33" class="st0" width="35" height="35"/>
<rect x="2590" y="-2" class="st0" width="35" height="35"/>
<rect x="2625" y="33" class="st0" width="35" height="35"/>
<rect x="2660" y="-2" class="st0" width="35" height="35"/>
<rect x="2695" y="33" class="st0" width="35" height="35"/>
<rect x="1190" y="68" class="st0" width="35" height="35"/>
<rect x="1225" y="103" class="st0" width="35" height="35"/>
<rect x="1260" y="68" class="st0" width="35" height="35"/>
<rect x="1295" y="103" class="st0" width="35" height="35"/>
<rect x="1330" y="68" class="st0" width="35" height="35"/>
<rect x="1365" y="103" class="st0" width="35" height="35"/>
<rect x="1400" y="68" class="st0" width="35" height="35"/>
<rect x="1435" y="103" class="st0" width="35" height="35"/>
<rect x="1470" y="68" class="st0" width="35" height="35"/>
<rect x="1505" y="103" class="st0" width="35" height="35"/>
<rect x="1540" y="68" class="st0" width="35" height="35"/>
<rect x="1575" y="103" class="st0" width="35" height="35"/>
<rect x="1610" y="68" class="st0" width="35" height="35"/>
<rect x="1645" y="103" class="st0" width="35" height="35"/>
<rect x="1680" y="68" class="st0" width="35" height="35"/>
<rect x="1715" y="103" class="st0" width="35" height="35"/>
<rect x="1750" y="68" class="st0" width="35" height="35"/>
<rect x="1785" y="103" class="st0" width="35" height="35"/>
<rect x="1820" y="68" class="st0" width="35" height="35"/>
<rect x="1855" y="103" class="st0" width="35" height="35"/>
<rect x="1890" y="68" class="st0" width="35" height="35"/>
<rect x="1925" y="103" class="st0" width="35" height="35"/>
<rect x="1960" y="68" class="st0" width="35" height="35"/>
<rect x="1995" y="103" class="st0" width="35" height="35"/>
<rect x="2030" y="68" class="st0" width="35" height="35"/>
<rect x="2065" y="103" class="st0" width="35" height="35"/>
<rect x="2100" y="68" class="st0" width="35" height="35"/>
<rect x="2135" y="103" class="st0" width="35" height="35"/>
<rect x="2170" y="68" class="st0" width="35" height="35"/>
<rect x="2205" y="103" class="st0" width="35" height="35"/>
<rect x="2240" y="68" class="st0" width="35" height="35"/>
<rect x="2275" y="103" class="st0" width="35" height="35"/>
<rect x="2310" y="68" class="st0" width="35" height="35"/>
<rect x="2345" y="103" class="st0" width="35" height="35"/>
<rect x="2380" y="68" class="st0" width="35" height="35"/>
<rect x="2415" y="103" class="st0" width="35" height="35"/>
<rect x="2450" y="68" class="st0" width="35" height="35"/>
<rect x="2485" y="103" class="st0" width="35" height="35"/>
<rect x="2520" y="68" class="st0" width="35" height="35"/>
<rect x="2555" y="103" class="st0" width="35" height="35"/>
<rect x="2590" y="68" class="st0" width="35" height="35"/>
<rect x="2625" y="103" class="st0" width="35" height="35"/>
<rect x="2660" y="68" class="st0" width="35" height="35"/>
<rect x="2695" y="103" class="st0" width="35" height="35"/>
</svg>
