<?xml version="1.0" encoding="UTF-8"?>
<svg id="Capa_1" data-name="Capa 1" xmlns="http://www.w3.org/2000/svg" viewBox="0 0 8190 140">
  <defs>
    <style>
      .cls-1 {
        fill: #e78142;
      }
    </style>
  </defs>
  <rect class="cls-1" width="35" height="35"/>
  <rect class="cls-1" x="35" y="35" width="35" height="35"/>
  <rect class="cls-1" x="70" width="35" height="35"/>
  <rect class="cls-1" x="105" y="35" width="35" height="35"/>
  <rect class="cls-1" x="140" width="35" height="35"/>
  <rect class="cls-1" x="175" y="35" width="35" height="35"/>
  <rect class="cls-1" x="210" width="35" height="35"/>
  <rect class="cls-1" x="245" y="35" width="35" height="35"/>
  <rect class="cls-1" x="280" width="35" height="35"/>
  <rect class="cls-1" x="315" y="35" width="35" height="35"/>
  <rect class="cls-1" x="350" width="35" height="35"/>
  <rect class="cls-1" x="385" y="35" width="35" height="35"/>
  <rect class="cls-1" x="420" width="35" height="35"/>
  <rect class="cls-1" x="455" y="35" width="35" height="35"/>
  <rect class="cls-1" x="490" width="35" height="35"/>
  <rect class="cls-1" x="525" y="35" width="35" height="35"/>
  <rect class="cls-1" x="560" width="35" height="35"/>
  <rect class="cls-1" x="595" y="35" width="35" height="35"/>
  <rect class="cls-1" x="630" width="35" height="35"/>
  <rect class="cls-1" x="665" y="35" width="35" height="35"/>
  <rect class="cls-1" x="700" width="35" height="35"/>
  <rect class="cls-1" x="735" y="35" width="35" height="35"/>
  <rect class="cls-1" x="770" width="35" height="35"/>
  <rect class="cls-1" x="805" y="35" width="35" height="35"/>
  <rect class="cls-1" x="840" width="35" height="35"/>
  <rect class="cls-1" x="875" y="35" width="35" height="35"/>
  <rect class="cls-1" x="910" width="35" height="35"/>
  <rect class="cls-1" x="945" y="35" width="35" height="35"/>
  <rect class="cls-1" x="980" width="35" height="35"/>
  <rect class="cls-1" x="1015" y="35" width="35" height="35"/>
  <rect class="cls-1" x="1050" width="35" height="35"/>
  <rect class="cls-1" x="1085" y="35" width="35" height="35"/>
  <rect class="cls-1" x="1120" width="35" height="35"/>
  <rect class="cls-1" x="1155" y="35" width="35" height="35"/>
  <rect class="cls-1" x="1190" width="35" height="35"/>
  <rect class="cls-1" x="1225" y="35" width="35" height="35"/>
  <rect class="cls-1" x="1260" width="35" height="35"/>
  <rect class="cls-1" x="1295" y="35" width="35" height="35"/>
  <rect class="cls-1" x="1330" width="35" height="35"/>
  <rect class="cls-1" x="1365" y="35" width="35" height="35"/>
  <rect class="cls-1" x="1400" width="35" height="35"/>
  <rect class="cls-1" x="1435" y="35" width="35" height="35"/>
  <rect class="cls-1" x="1470" width="35" height="35"/>
  <rect class="cls-1" x="1505" y="35" width="35" height="35"/>
  <rect class="cls-1" y="70" width="35" height="35"/>
  <rect class="cls-1" x="35" y="105" width="35" height="35"/>
  <rect class="cls-1" x="70" y="70" width="35" height="35"/>
  <rect class="cls-1" x="105" y="105" width="35" height="35"/>
  <rect class="cls-1" x="140" y="70" width="35" height="35"/>
  <rect class="cls-1" x="175" y="105" width="35" height="35"/>
  <rect class="cls-1" x="210" y="70" width="35" height="35"/>
  <rect class="cls-1" x="245" y="105" width="35" height="35"/>
  <rect class="cls-1" x="280" y="70" width="35" height="35"/>
  <rect class="cls-1" x="315" y="105" width="35" height="35"/>
  <rect class="cls-1" x="350" y="70" width="35" height="35"/>
  <rect class="cls-1" x="385" y="105" width="35" height="35"/>
  <rect class="cls-1" x="420" y="70" width="35" height="35"/>
  <rect class="cls-1" x="455" y="105" width="35" height="35"/>
  <rect class="cls-1" x="490" y="70" width="35" height="35"/>
  <rect class="cls-1" x="525" y="105" width="35" height="35"/>
  <rect class="cls-1" x="560" y="70" width="35" height="35"/>
  <rect class="cls-1" x="595" y="105" width="35" height="35"/>
  <rect class="cls-1" x="630" y="70" width="35" height="35"/>
  <rect class="cls-1" x="665" y="105" width="35" height="35"/>
  <rect class="cls-1" x="700" y="70" width="35" height="35"/>
  <rect class="cls-1" x="735" y="105" width="35" height="35"/>
  <rect class="cls-1" x="770" y="70" width="35" height="35"/>
  <rect class="cls-1" x="805" y="105" width="35" height="35"/>
  <rect class="cls-1" x="840" y="70" width="35" height="35"/>
  <rect class="cls-1" x="875" y="105" width="35" height="35"/>
  <rect class="cls-1" x="910" y="70" width="35" height="35"/>
  <rect class="cls-1" x="945" y="105" width="35" height="35"/>
  <rect class="cls-1" x="980" y="70" width="35" height="35"/>
  <rect class="cls-1" x="1015" y="105" width="35" height="35"/>
  <rect class="cls-1" x="1050" y="70" width="35" height="35"/>
  <rect class="cls-1" x="1085" y="105" width="35" height="35"/>
  <rect class="cls-1" x="1120" y="70" width="35" height="35"/>
  <rect class="cls-1" x="1155" y="105" width="35" height="35"/>
  <rect class="cls-1" x="1190" y="70" width="35" height="35"/>
  <rect class="cls-1" x="1225" y="105" width="35" height="35"/>
  <rect class="cls-1" x="1260" y="70" width="35" height="35"/>
  <rect class="cls-1" x="1295" y="105" width="35" height="35"/>
  <rect class="cls-1" x="1330" y="70" width="35" height="35"/>
  <rect class="cls-1" x="1365" y="105" width="35" height="35"/>
  <rect class="cls-1" x="1400" y="70" width="35" height="35"/>
  <rect class="cls-1" x="1435" y="105" width="35" height="35"/>
  <rect class="cls-1" x="1470" y="70" width="35" height="35"/>
  <rect class="cls-1" x="1505" y="105" width="35" height="35"/>
  <rect class="cls-1" x="1190" width="35" height="35"/>
  <rect class="cls-1" x="1225" y="35" width="35" height="35"/>
  <rect class="cls-1" x="1260" width="35" height="35"/>
  <rect class="cls-1" x="1295" y="35" width="35" height="35"/>
  <rect class="cls-1" x="1330" width="35" height="35"/>
  <rect class="cls-1" x="1365" y="35" width="35" height="35"/>
  <rect class="cls-1" x="1400" width="35" height="35"/>
  <rect class="cls-1" x="1435" y="35" width="35" height="35"/>
  <rect class="cls-1" x="1470" width="35" height="35"/>
  <rect class="cls-1" x="1505" y="35" width="35" height="35"/>
  <rect class="cls-1" x="1540" width="35" height="35"/>
  <rect class="cls-1" x="1575" y="35" width="35" height="35"/>
  <rect class="cls-1" x="1610" width="35" height="35"/>
  <rect class="cls-1" x="1645" y="35" width="35" height="35"/>
  <rect class="cls-1" x="1680" width="35" height="35"/>
  <rect class="cls-1" x="1715" y="35" width="35" height="35"/>
  <rect class="cls-1" x="1750" width="35" height="35"/>
  <rect class="cls-1" x="1785" y="35" width="35" height="35"/>
  <rect class="cls-1" x="1820" width="35" height="35"/>
  <rect class="cls-1" x="1855" y="35" width="35" height="35"/>
  <rect class="cls-1" x="1890" width="35" height="35"/>
  <rect class="cls-1" x="1925" y="35" width="35" height="35"/>
  <rect class="cls-1" x="1960" width="35" height="35"/>
  <rect class="cls-1" x="1995" y="35" width="35" height="35"/>
  <rect class="cls-1" x="2030" width="35" height="35"/>
  <rect class="cls-1" x="2065" y="35" width="35" height="35"/>
  <rect class="cls-1" x="2100" width="35" height="35"/>
  <rect class="cls-1" x="2135" y="35" width="35" height="35"/>
  <rect class="cls-1" x="2170" width="35" height="35"/>
  <rect class="cls-1" x="2205" y="35" width="35" height="35"/>
  <rect class="cls-1" x="2240" width="35" height="35"/>
  <rect class="cls-1" x="2275" y="35" width="35" height="35"/>
  <rect class="cls-1" x="2310" width="35" height="35"/>
  <rect class="cls-1" x="2345" y="35" width="35" height="35"/>
  <rect class="cls-1" x="2380" width="35" height="35"/>
  <rect class="cls-1" x="2415" y="35" width="35" height="35"/>
  <rect class="cls-1" x="2450" width="35" height="35"/>
  <rect class="cls-1" x="2485" y="35" width="35" height="35"/>
  <rect class="cls-1" x="2520" width="35" height="35"/>
  <rect class="cls-1" x="2555" y="35" width="35" height="35"/>
  <rect class="cls-1" x="2590" width="35" height="35"/>
  <rect class="cls-1" x="2625" y="35" width="35" height="35"/>
  <rect class="cls-1" x="2660" width="35" height="35"/>
  <rect class="cls-1" x="2695" y="35" width="35" height="35"/>
  <rect class="cls-1" x="1190" y="70" width="35" height="35"/>
  <rect class="cls-1" x="1225" y="105" width="35" height="35"/>
  <rect class="cls-1" x="1260" y="70" width="35" height="35"/>
  <rect class="cls-1" x="1295" y="105" width="35" height="35"/>
  <rect class="cls-1" x="1330" y="70" width="35" height="35"/>
  <rect class="cls-1" x="1365" y="105" width="35" height="35"/>
  <rect class="cls-1" x="1400" y="70" width="35" height="35"/>
  <rect class="cls-1" x="1435" y="105" width="35" height="35"/>
  <rect class="cls-1" x="1470" y="70" width="35" height="35"/>
  <rect class="cls-1" x="1505" y="105" width="35" height="35"/>
  <rect class="cls-1" x="1540" y="70" width="35" height="35"/>
  <rect class="cls-1" x="1575" y="105" width="35" height="35"/>
  <rect class="cls-1" x="1610" y="70" width="35" height="35"/>
  <rect class="cls-1" x="1645" y="105" width="35" height="35"/>
  <rect class="cls-1" x="1680" y="70" width="35" height="35"/>
  <rect class="cls-1" x="1715" y="105" width="35" height="35"/>
  <rect class="cls-1" x="1750" y="70" width="35" height="35"/>
  <rect class="cls-1" x="1785" y="105" width="35" height="35"/>
  <rect class="cls-1" x="1820" y="70" width="35" height="35"/>
  <rect class="cls-1" x="1855" y="105" width="35" height="35"/>
  <rect class="cls-1" x="1890" y="70" width="35" height="35"/>
  <rect class="cls-1" x="1925" y="105" width="35" height="35"/>
  <rect class="cls-1" x="1960" y="70" width="35" height="35"/>
  <rect class="cls-1" x="1995" y="105" width="35" height="35"/>
  <rect class="cls-1" x="2030" y="70" width="35" height="35"/>
  <rect class="cls-1" x="2065" y="105" width="35" height="35"/>
  <rect class="cls-1" x="2100" y="70" width="35" height="35"/>
  <rect class="cls-1" x="2135" y="105" width="35" height="35"/>
  <rect class="cls-1" x="2170" y="70" width="35" height="35"/>
  <rect class="cls-1" x="2205" y="105" width="35" height="35"/>
  <rect class="cls-1" x="2240" y="70" width="35" height="35"/>
  <rect class="cls-1" x="2275" y="105" width="35" height="35"/>
  <rect class="cls-1" x="2310" y="70" width="35" height="35"/>
  <rect class="cls-1" x="2345" y="105" width="35" height="35"/>
  <rect class="cls-1" x="2380" y="70" width="35" height="35"/>
  <rect class="cls-1" x="2415" y="105" width="35" height="35"/>
  <rect class="cls-1" x="2450" y="70" width="35" height="35"/>
  <rect class="cls-1" x="2485" y="105" width="35" height="35"/>
  <rect class="cls-1" x="2520" y="70" width="35" height="35"/>
  <rect class="cls-1" x="2555" y="105" width="35" height="35"/>
  <rect class="cls-1" x="2590" y="70" width="35" height="35"/>
  <rect class="cls-1" x="2625" y="105" width="35" height="35"/>
  <rect class="cls-1" x="2660" y="70" width="35" height="35"/>
  <rect class="cls-1" x="2695" y="105" width="35" height="35"/>
  <rect class="cls-1" x="2730" width="35" height="35"/>
  <rect class="cls-1" x="2765" y="35" width="35" height="35"/>
  <rect class="cls-1" x="2800" width="35" height="35"/>
  <rect class="cls-1" x="2835" y="35" width="35" height="35"/>
  <rect class="cls-1" x="2870" width="35" height="35"/>
  <rect class="cls-1" x="2905" y="35" width="35" height="35"/>
  <rect class="cls-1" x="2940" width="35" height="35"/>
  <rect class="cls-1" x="2975" y="35" width="35" height="35"/>
  <rect class="cls-1" x="3010" width="35" height="35"/>
  <rect class="cls-1" x="3045" y="35" width="35" height="35"/>
  <rect class="cls-1" x="3080" width="35" height="35"/>
  <rect class="cls-1" x="3115" y="35" width="35" height="35"/>
  <rect class="cls-1" x="3150" width="35" height="35"/>
  <rect class="cls-1" x="3185" y="35" width="35" height="35"/>
  <rect class="cls-1" x="3220" width="35" height="35"/>
  <rect class="cls-1" x="3255" y="35" width="35" height="35"/>
  <rect class="cls-1" x="3290" width="35" height="35"/>
  <rect class="cls-1" x="3325" y="35" width="35" height="35"/>
  <rect class="cls-1" x="3360" width="35" height="35"/>
  <rect class="cls-1" x="3395" y="35" width="35" height="35"/>
  <rect class="cls-1" x="3430" width="35" height="35"/>
  <rect class="cls-1" x="3465" y="35" width="35" height="35"/>
  <rect class="cls-1" x="3500" width="35" height="35"/>
  <rect class="cls-1" x="3535" y="35" width="35" height="35"/>
  <rect class="cls-1" x="3570" width="35" height="35"/>
  <rect class="cls-1" x="3605" y="35" width="35" height="35"/>
  <rect class="cls-1" x="3640" width="35" height="35"/>
  <rect class="cls-1" x="3675" y="35" width="35" height="35"/>
  <rect class="cls-1" x="3710" width="35" height="35"/>
  <rect class="cls-1" x="3745" y="35" width="35" height="35"/>
  <rect class="cls-1" x="3780" width="35" height="35"/>
  <rect class="cls-1" x="3815" y="35" width="35" height="35"/>
  <rect class="cls-1" x="3850" width="35" height="35"/>
  <rect class="cls-1" x="3885" y="35" width="35" height="35"/>
  <rect class="cls-1" x="3920" width="35" height="35"/>
  <rect class="cls-1" x="3955" y="35" width="35" height="35"/>
  <rect class="cls-1" x="3990" width="35" height="35"/>
  <rect class="cls-1" x="4025" y="35" width="35" height="35"/>
  <rect class="cls-1" x="4060" width="35" height="35"/>
  <rect class="cls-1" x="4095" y="35" width="35" height="35"/>
  <rect class="cls-1" x="4130" width="35" height="35"/>
  <rect class="cls-1" x="4165" y="35" width="35" height="35"/>
  <rect class="cls-1" x="4200" width="35" height="35"/>
  <rect class="cls-1" x="4235" y="35" width="35" height="35"/>
  <rect class="cls-1" x="2730" y="70" width="35" height="35"/>
  <rect class="cls-1" x="2765" y="105" width="35" height="35"/>
  <rect class="cls-1" x="2800" y="70" width="35" height="35"/>
  <rect class="cls-1" x="2835" y="105" width="35" height="35"/>
  <rect class="cls-1" x="2870" y="70" width="35" height="35"/>
  <rect class="cls-1" x="2905" y="105" width="35" height="35"/>
  <rect class="cls-1" x="2940" y="70" width="35" height="35"/>
  <rect class="cls-1" x="2975" y="105" width="35" height="35"/>
  <rect class="cls-1" x="3010" y="70" width="35" height="35"/>
  <rect class="cls-1" x="3045" y="105" width="35" height="35"/>
  <rect class="cls-1" x="3080" y="70" width="35" height="35"/>
  <rect class="cls-1" x="3115" y="105" width="35" height="35"/>
  <rect class="cls-1" x="3150" y="70" width="35" height="35"/>
  <rect class="cls-1" x="3185" y="105" width="35" height="35"/>
  <rect class="cls-1" x="3220" y="70" width="35" height="35"/>
  <rect class="cls-1" x="3255" y="105" width="35" height="35"/>
  <rect class="cls-1" x="3290" y="70" width="35" height="35"/>
  <rect class="cls-1" x="3325" y="105" width="35" height="35"/>
  <rect class="cls-1" x="3360" y="70" width="35" height="35"/>
  <rect class="cls-1" x="3395" y="105" width="35" height="35"/>
  <rect class="cls-1" x="3430" y="70" width="35" height="35"/>
  <rect class="cls-1" x="3465" y="105" width="35" height="35"/>
  <rect class="cls-1" x="3500" y="70" width="35" height="35"/>
  <rect class="cls-1" x="3535" y="105" width="35" height="35"/>
  <rect class="cls-1" x="3570" y="70" width="35" height="35"/>
  <rect class="cls-1" x="3605" y="105" width="35" height="35"/>
  <rect class="cls-1" x="3640" y="70" width="35" height="35"/>
  <rect class="cls-1" x="3675" y="105" width="35" height="35"/>
  <rect class="cls-1" x="3710" y="70" width="35" height="35"/>
  <rect class="cls-1" x="3745" y="105" width="35" height="35"/>
  <rect class="cls-1" x="3780" y="70" width="35" height="35"/>
  <rect class="cls-1" x="3815" y="105" width="35" height="35"/>
  <rect class="cls-1" x="3850" y="70" width="35" height="35"/>
  <rect class="cls-1" x="3885" y="105" width="35" height="35"/>
  <rect class="cls-1" x="3920" y="70" width="35" height="35"/>
  <rect class="cls-1" x="3955" y="105" width="35" height="35"/>
  <rect class="cls-1" x="3990" y="70" width="35" height="35"/>
  <rect class="cls-1" x="4025" y="105" width="35" height="35"/>
  <rect class="cls-1" x="4060" y="70" width="35" height="35"/>
  <rect class="cls-1" x="4095" y="105" width="35" height="35"/>
  <rect class="cls-1" x="4130" y="70" width="35" height="35"/>
  <rect class="cls-1" x="4165" y="105" width="35" height="35"/>
  <rect class="cls-1" x="4200" y="70" width="35" height="35"/>
  <rect class="cls-1" x="4235" y="105" width="35" height="35"/>
  <rect class="cls-1" x="3920" width="35" height="35"/>
  <rect class="cls-1" x="3955" y="35" width="35" height="35"/>
  <rect class="cls-1" x="3990" width="35" height="35"/>
  <rect class="cls-1" x="4025" y="35" width="35" height="35"/>
  <rect class="cls-1" x="4060" width="35" height="35"/>
  <rect class="cls-1" x="4095" y="35" width="35" height="35"/>
  <rect class="cls-1" x="4130" width="35" height="35"/>
  <rect class="cls-1" x="4165" y="35" width="35" height="35"/>
  <rect class="cls-1" x="4200" width="35" height="35"/>
  <rect class="cls-1" x="4235" y="35" width="35" height="35"/>
  <rect class="cls-1" x="4270" width="35" height="35"/>
  <rect class="cls-1" x="4305" y="35" width="35" height="35"/>
  <rect class="cls-1" x="4340" width="35" height="35"/>
  <rect class="cls-1" x="4375" y="35" width="35" height="35"/>
  <rect class="cls-1" x="4410" width="35" height="35"/>
  <rect class="cls-1" x="4445" y="35" width="35" height="35"/>
  <rect class="cls-1" x="4480" width="35" height="35"/>
  <rect class="cls-1" x="4515" y="35" width="35" height="35"/>
  <rect class="cls-1" x="4550" width="35" height="35"/>
  <rect class="cls-1" x="4585" y="35" width="35" height="35"/>
  <rect class="cls-1" x="4620" width="35" height="35"/>
  <rect class="cls-1" x="4655" y="35" width="35" height="35"/>
  <rect class="cls-1" x="4690" width="35" height="35"/>
  <rect class="cls-1" x="4725" y="35" width="35" height="35"/>
  <rect class="cls-1" x="4760" width="35" height="35"/>
  <rect class="cls-1" x="4795" y="35" width="35" height="35"/>
  <rect class="cls-1" x="4830" width="35" height="35"/>
  <rect class="cls-1" x="4865" y="35" width="35" height="35"/>
  <rect class="cls-1" x="4900" width="35" height="35"/>
  <rect class="cls-1" x="4935" y="35" width="35" height="35"/>
  <rect class="cls-1" x="4970" width="35" height="35"/>
  <rect class="cls-1" x="5005" y="35" width="35" height="35"/>
  <rect class="cls-1" x="5040" width="35" height="35"/>
  <rect class="cls-1" x="5075" y="35" width="35" height="35"/>
  <rect class="cls-1" x="5110" width="35" height="35"/>
  <rect class="cls-1" x="5145" y="35" width="35" height="35"/>
  <rect class="cls-1" x="5180" width="35" height="35"/>
  <rect class="cls-1" x="5215" y="35" width="35" height="35"/>
  <rect class="cls-1" x="5250" width="35" height="35"/>
  <rect class="cls-1" x="5285" y="35" width="35" height="35"/>
  <rect class="cls-1" x="5320" width="35" height="35"/>
  <rect class="cls-1" x="5355" y="35" width="35" height="35"/>
  <rect class="cls-1" x="5390" width="35" height="35"/>
  <rect class="cls-1" x="5425" y="35" width="35" height="35"/>
  <rect class="cls-1" x="3920" y="70" width="35" height="35"/>
  <rect class="cls-1" x="3955" y="105" width="35" height="35"/>
  <rect class="cls-1" x="3990" y="70" width="35" height="35"/>
  <rect class="cls-1" x="4025" y="105" width="35" height="35"/>
  <rect class="cls-1" x="4060" y="70" width="35" height="35"/>
  <rect class="cls-1" x="4095" y="105" width="35" height="35"/>
  <rect class="cls-1" x="4130" y="70" width="35" height="35"/>
  <rect class="cls-1" x="4165" y="105" width="35" height="35"/>
  <rect class="cls-1" x="4200" y="70" width="35" height="35"/>
  <rect class="cls-1" x="4235" y="105" width="35" height="35"/>
  <rect class="cls-1" x="4270" y="70" width="35" height="35"/>
  <rect class="cls-1" x="4305" y="105" width="35" height="35"/>
  <rect class="cls-1" x="4340" y="70" width="35" height="35"/>
  <rect class="cls-1" x="4375" y="105" width="35" height="35"/>
  <rect class="cls-1" x="4410" y="70" width="35" height="35"/>
  <rect class="cls-1" x="4445" y="105" width="35" height="35"/>
  <rect class="cls-1" x="4480" y="70" width="35" height="35"/>
  <rect class="cls-1" x="4515" y="105" width="35" height="35"/>
  <rect class="cls-1" x="4550" y="70" width="35" height="35"/>
  <rect class="cls-1" x="4585" y="105" width="35" height="35"/>
  <rect class="cls-1" x="4620" y="70" width="35" height="35"/>
  <rect class="cls-1" x="4655" y="105" width="35" height="35"/>
  <rect class="cls-1" x="4690" y="70" width="35" height="35"/>
  <rect class="cls-1" x="4725" y="105" width="35" height="35"/>
  <rect class="cls-1" x="4760" y="70" width="35" height="35"/>
  <rect class="cls-1" x="4795" y="105" width="35" height="35"/>
  <rect class="cls-1" x="4830" y="70" width="35" height="35"/>
  <rect class="cls-1" x="4865" y="105" width="35" height="35"/>
  <rect class="cls-1" x="4900" y="70" width="35" height="35"/>
  <rect class="cls-1" x="4935" y="105" width="35" height="35"/>
  <rect class="cls-1" x="4970" y="70" width="35" height="35"/>
  <rect class="cls-1" x="5005" y="105" width="35" height="35"/>
  <rect class="cls-1" x="5040" y="70" width="35" height="35"/>
  <rect class="cls-1" x="5075" y="105" width="35" height="35"/>
  <rect class="cls-1" x="5110" y="70" width="35" height="35"/>
  <rect class="cls-1" x="5145" y="105" width="35" height="35"/>
  <rect class="cls-1" x="5180" y="70" width="35" height="35"/>
  <rect class="cls-1" x="5215" y="105" width="35" height="35"/>
  <rect class="cls-1" x="5250" y="70" width="35" height="35"/>
  <rect class="cls-1" x="5285" y="105" width="35" height="35"/>
  <rect class="cls-1" x="5320" y="70" width="35" height="35"/>
  <rect class="cls-1" x="5355" y="105" width="35" height="35"/>
  <rect class="cls-1" x="5390" y="70" width="35" height="35"/>
  <rect class="cls-1" x="5425" y="105" width="35" height="35"/>
  <rect class="cls-1" x="5460" width="35" height="35"/>
  <rect class="cls-1" x="5495" y="35" width="35" height="35"/>
  <rect class="cls-1" x="5530" width="35" height="35"/>
  <rect class="cls-1" x="5565" y="35" width="35" height="35"/>
  <rect class="cls-1" x="5600" width="35" height="35"/>
  <rect class="cls-1" x="5635" y="35" width="35" height="35"/>
  <rect class="cls-1" x="5670" width="35" height="35"/>
  <rect class="cls-1" x="5705" y="35" width="35" height="35"/>
  <rect class="cls-1" x="5740" width="35" height="35"/>
  <rect class="cls-1" x="5775" y="35" width="35" height="35"/>
  <rect class="cls-1" x="5810" width="35" height="35"/>
  <rect class="cls-1" x="5845" y="35" width="35" height="35"/>
  <rect class="cls-1" x="5880" width="35" height="35"/>
  <rect class="cls-1" x="5915" y="35" width="35" height="35"/>
  <rect class="cls-1" x="5950" width="35" height="35"/>
  <rect class="cls-1" x="5985" y="35" width="35" height="35"/>
  <rect class="cls-1" x="6020" width="35" height="35"/>
  <rect class="cls-1" x="6055" y="35" width="35" height="35"/>
  <rect class="cls-1" x="6090" width="35" height="35"/>
  <rect class="cls-1" x="6125" y="35" width="35" height="35"/>
  <rect class="cls-1" x="6160" width="35" height="35"/>
  <rect class="cls-1" x="6195" y="35" width="35" height="35"/>
  <rect class="cls-1" x="6230" width="35" height="35"/>
  <rect class="cls-1" x="6265" y="35" width="35" height="35"/>
  <rect class="cls-1" x="6300" width="35" height="35"/>
  <rect class="cls-1" x="6335" y="35" width="35" height="35"/>
  <rect class="cls-1" x="6370" width="35" height="35"/>
  <rect class="cls-1" x="6405" y="35" width="35" height="35"/>
  <rect class="cls-1" x="6440" width="35" height="35"/>
  <rect class="cls-1" x="6475" y="35" width="35" height="35"/>
  <rect class="cls-1" x="6510" width="35" height="35"/>
  <rect class="cls-1" x="6545" y="35" width="35" height="35"/>
  <rect class="cls-1" x="6580" width="35" height="35"/>
  <rect class="cls-1" x="6615" y="35" width="35" height="35"/>
  <rect class="cls-1" x="6650" width="35" height="35"/>
  <rect class="cls-1" x="6685" y="35" width="35" height="35"/>
  <rect class="cls-1" x="6720" width="35" height="35"/>
  <rect class="cls-1" x="6755" y="35" width="35" height="35"/>
  <rect class="cls-1" x="6790" width="35" height="35"/>
  <rect class="cls-1" x="6825" y="35" width="35" height="35"/>
  <rect class="cls-1" x="6860" width="35" height="35"/>
  <rect class="cls-1" x="6895" y="35" width="35" height="35"/>
  <rect class="cls-1" x="6930" width="35" height="35"/>
  <rect class="cls-1" x="6965" y="35" width="35" height="35"/>
  <rect class="cls-1" x="5460" y="70" width="35" height="35"/>
  <rect class="cls-1" x="5495" y="105" width="35" height="35"/>
  <rect class="cls-1" x="5530" y="70" width="35" height="35"/>
  <rect class="cls-1" x="5565" y="105" width="35" height="35"/>
  <rect class="cls-1" x="5600" y="70" width="35" height="35"/>
  <rect class="cls-1" x="5635" y="105" width="35" height="35"/>
  <rect class="cls-1" x="5670" y="70" width="35" height="35"/>
  <rect class="cls-1" x="5705" y="105" width="35" height="35"/>
  <rect class="cls-1" x="5740" y="70" width="35" height="35"/>
  <rect class="cls-1" x="5775" y="105" width="35" height="35"/>
  <rect class="cls-1" x="5810" y="70" width="35" height="35"/>
  <rect class="cls-1" x="5845" y="105" width="35" height="35"/>
  <rect class="cls-1" x="5880" y="70" width="35" height="35"/>
  <rect class="cls-1" x="5915" y="105" width="35" height="35"/>
  <rect class="cls-1" x="5950" y="70" width="35" height="35"/>
  <rect class="cls-1" x="5985" y="105" width="35" height="35"/>
  <rect class="cls-1" x="6020" y="70" width="35" height="35"/>
  <rect class="cls-1" x="6055" y="105" width="35" height="35"/>
  <rect class="cls-1" x="6090" y="70" width="35" height="35"/>
  <rect class="cls-1" x="6125" y="105" width="35" height="35"/>
  <rect class="cls-1" x="6160" y="70" width="35" height="35"/>
  <rect class="cls-1" x="6195" y="105" width="35" height="35"/>
  <rect class="cls-1" x="6230" y="70" width="35" height="35"/>
  <rect class="cls-1" x="6265" y="105" width="35" height="35"/>
  <rect class="cls-1" x="6300" y="70" width="35" height="35"/>
  <rect class="cls-1" x="6335" y="105" width="35" height="35"/>
  <rect class="cls-1" x="6370" y="70" width="35" height="35"/>
  <rect class="cls-1" x="6405" y="105" width="35" height="35"/>
  <rect class="cls-1" x="6440" y="70" width="35" height="35"/>
  <rect class="cls-1" x="6475" y="105" width="35" height="35"/>
  <rect class="cls-1" x="6510" y="70" width="35" height="35"/>
  <rect class="cls-1" x="6545" y="105" width="35" height="35"/>
  <rect class="cls-1" x="6580" y="70" width="35" height="35"/>
  <rect class="cls-1" x="6615" y="105" width="35" height="35"/>
  <rect class="cls-1" x="6650" y="70" width="35" height="35"/>
  <rect class="cls-1" x="6685" y="105" width="35" height="35"/>
  <rect class="cls-1" x="6720" y="70" width="35" height="35"/>
  <rect class="cls-1" x="6755" y="105" width="35" height="35"/>
  <rect class="cls-1" x="6790" y="70" width="35" height="35"/>
  <rect class="cls-1" x="6825" y="105" width="35" height="35"/>
  <rect class="cls-1" x="6860" y="70" width="35" height="35"/>
  <rect class="cls-1" x="6895" y="105" width="35" height="35"/>
  <rect class="cls-1" x="6930" y="70" width="35" height="35"/>
  <rect class="cls-1" x="6965" y="105" width="35" height="35"/>
  <rect class="cls-1" x="6650" width="35" height="35"/>
  <rect class="cls-1" x="6685" y="35" width="35" height="35"/>
  <rect class="cls-1" x="6720" width="35" height="35"/>
  <rect class="cls-1" x="6755" y="35" width="35" height="35"/>
  <rect class="cls-1" x="6790" width="35" height="35"/>
  <rect class="cls-1" x="6825" y="35" width="35" height="35"/>
  <rect class="cls-1" x="6860" width="35" height="35"/>
  <rect class="cls-1" x="6895" y="35" width="35" height="35"/>
  <rect class="cls-1" x="6930" width="35" height="35"/>
  <rect class="cls-1" x="6965" y="35" width="35" height="35"/>
  <rect class="cls-1" x="7000" width="35" height="35"/>
  <rect class="cls-1" x="7035" y="35" width="35" height="35"/>
  <rect class="cls-1" x="7070" width="35" height="35"/>
  <rect class="cls-1" x="7105" y="35" width="35" height="35"/>
  <rect class="cls-1" x="7140" width="35" height="35"/>
  <rect class="cls-1" x="7175" y="35" width="35" height="35"/>
  <rect class="cls-1" x="7210" width="35" height="35"/>
  <rect class="cls-1" x="7245" y="35" width="35" height="35"/>
  <rect class="cls-1" x="7280" width="35" height="35"/>
  <rect class="cls-1" x="7315" y="35" width="35" height="35"/>
  <rect class="cls-1" x="7350" width="35" height="35"/>
  <rect class="cls-1" x="7385" y="35" width="35" height="35"/>
  <rect class="cls-1" x="7420" width="35" height="35"/>
  <rect class="cls-1" x="7455" y="35" width="35" height="35"/>
  <rect class="cls-1" x="7490" width="35" height="35"/>
  <rect class="cls-1" x="7525" y="35" width="35" height="35"/>
  <rect class="cls-1" x="7560" width="35" height="35"/>
  <rect class="cls-1" x="7595" y="35" width="35" height="35"/>
  <rect class="cls-1" x="7630" width="35" height="35"/>
  <rect class="cls-1" x="7665" y="35" width="35" height="35"/>
  <rect class="cls-1" x="7700" width="35" height="35"/>
  <rect class="cls-1" x="7735" y="35" width="35" height="35"/>
  <rect class="cls-1" x="7770" width="35" height="35"/>
  <rect class="cls-1" x="7805" y="35" width="35" height="35"/>
  <rect class="cls-1" x="7840" width="35" height="35"/>
  <rect class="cls-1" x="7875" y="35" width="35" height="35"/>
  <rect class="cls-1" x="7910" width="35" height="35"/>
  <rect class="cls-1" x="7945" y="35" width="35" height="35"/>
  <rect class="cls-1" x="7980" width="35" height="35"/>
  <rect class="cls-1" x="8015" y="35" width="35" height="35"/>
  <rect class="cls-1" x="8050" width="35" height="35"/>
  <rect class="cls-1" x="8085" y="35" width="35" height="35"/>
  <rect class="cls-1" x="8120" width="35" height="35"/>
  <rect class="cls-1" x="8155" y="35" width="35" height="35"/>
  <rect class="cls-1" x="6650" y="70" width="35" height="35"/>
  <rect class="cls-1" x="6685" y="105" width="35" height="35"/>
  <rect class="cls-1" x="6720" y="70" width="35" height="35"/>
  <rect class="cls-1" x="6755" y="105" width="35" height="35"/>
  <rect class="cls-1" x="6790" y="70" width="35" height="35"/>
  <rect class="cls-1" x="6825" y="105" width="35" height="35"/>
  <rect class="cls-1" x="6860" y="70" width="35" height="35"/>
  <rect class="cls-1" x="6895" y="105" width="35" height="35"/>
  <rect class="cls-1" x="6930" y="70" width="35" height="35"/>
  <rect class="cls-1" x="6965" y="105" width="35" height="35"/>
  <rect class="cls-1" x="7000" y="70" width="35" height="35"/>
  <rect class="cls-1" x="7035" y="105" width="35" height="35"/>
  <rect class="cls-1" x="7070" y="70" width="35" height="35"/>
  <rect class="cls-1" x="7105" y="105" width="35" height="35"/>
  <rect class="cls-1" x="7140" y="70" width="35" height="35"/>
  <rect class="cls-1" x="7175" y="105" width="35" height="35"/>
  <rect class="cls-1" x="7210" y="70" width="35" height="35"/>
  <rect class="cls-1" x="7245" y="105" width="35" height="35"/>
  <rect class="cls-1" x="7280" y="70" width="35" height="35"/>
  <rect class="cls-1" x="7315" y="105" width="35" height="35"/>
  <rect class="cls-1" x="7350" y="70" width="35" height="35"/>
  <rect class="cls-1" x="7385" y="105" width="35" height="35"/>
  <rect class="cls-1" x="7420" y="70" width="35" height="35"/>
  <rect class="cls-1" x="7455" y="105" width="35" height="35"/>
  <rect class="cls-1" x="7490" y="70" width="35" height="35"/>
  <rect class="cls-1" x="7525" y="105" width="35" height="35"/>
  <rect class="cls-1" x="7560" y="70" width="35" height="35"/>
  <rect class="cls-1" x="7595" y="105" width="35" height="35"/>
  <rect class="cls-1" x="7630" y="70" width="35" height="35"/>
  <rect class="cls-1" x="7665" y="105" width="35" height="35"/>
  <rect class="cls-1" x="7700" y="70" width="35" height="35"/>
  <rect class="cls-1" x="7735" y="105" width="35" height="35"/>
  <rect class="cls-1" x="7770" y="70" width="35" height="35"/>
  <rect class="cls-1" x="7805" y="105" width="35" height="35"/>
  <rect class="cls-1" x="7840" y="70" width="35" height="35"/>
  <rect class="cls-1" x="7875" y="105" width="35" height="35"/>
  <rect class="cls-1" x="7910" y="70" width="35" height="35"/>
  <rect class="cls-1" x="7945" y="105" width="35" height="35"/>
  <rect class="cls-1" x="7980" y="70" width="35" height="35"/>
  <rect class="cls-1" x="8015" y="105" width="35" height="35"/>
  <rect class="cls-1" x="8050" y="70" width="35" height="35"/>
  <rect class="cls-1" x="8085" y="105" width="35" height="35"/>
  <rect class="cls-1" x="8120" y="70" width="35" height="35"/>
  <rect class="cls-1" x="8155" y="105" width="35" height="35"/>
</svg>