<?xml version="1.0" encoding="utf-8"?>
<!-- Generator: Adobe Illustrator 27.0.0, SVG Export Plug-In . SVG Version: 6.00 Build 0)  -->
<svg version="1.1" id="Capa_1" xmlns="http://www.w3.org/2000/svg" xmlns:xlink="http://www.w3.org/1999/xlink" x="0px" y="0px"
	 viewBox="0 0 2714.9 4940.5" style="enable-background:new 0 0 2714.9 4940.5;" xml:space="preserve">
<style type="text/css">
	.st0{fill:#E78142;}
</style>
<path class="st0" d="M496,4906.6c-69.6,59.7-141,27.4-166.9,2.6c-26.6-24.9-92.6-62.2-162.2-2.6S25.9,4934,0,4909.2v-319.7h7078
	v317.1c-69.6,59.7-141,27.4-166.9,2.6c-26.6-24.9-92.6-62.2-162.2-2.6c-69.6,59.7-141,27.4-166.9,2.6
	c-26.6-24.9-92.6-62.2-162.2-2.6c-69.6,59.7-141,27.4-166.9,2.6c-26.6-24.9-92.6-62.2-162.2-2.6c-69.6,59.7-141,27.4-166.9,2.6
	c-26.6-24.9-92.6-62.2-162.2-2.6c-69.6,59.7-141,27.4-166.9,2.6c-26.6-24.9-92.6-62.2-162.2-2.6c-69.6,59.7-141,27.4-166.9,2.6
	c-26.6-24.9-92.6-62.2-162.2-2.6c-69.6,59.7-141,27.4-166.9,2.6c-26.6-24.9-92.6-62.2-162.2-2.6c-69.6,59.7-141,27.4-166.9,2.6
	c-26.6-24.9-92.6-62.2-162.2-2.6c-69.6,59.7-141,27.4-166.9,2.6c-26.6-24.9-92.6-62.2-162.2-2.6c-69.6,59.7-141,27.4-166.9,2.6
	c-26.6-24.9-92.6-62.2-162.2-2.6c-69.6,59.7-141,27.4-166.9,2.6c-26.6-24.9-92.6-62.2-162.2-2.6c-69.6,59.7-141,27.4-166.9,2.6
	c-26.6-24.9-92.6-62.2-162.2-2.6c-69.6,59.7-141,27.4-166.9,2.6c-26.6-24.9-92.6-62.2-162.2-2.6c-69.6,59.7-141,27.4-166.9,2.6
	c-26.6-24.9-92.6-62.2-162.2-2.6c-69.6,59.7-141,27.4-166.9,2.6c-26.6-24.9-92.6-62.2-162.2-2.6c-69.6,59.7-141,27.4-166.9,2.6
	c-26.6-24.9-92.6-62.2-162.2-2.6c-69.6,59.7-141,27.4-166.9,2.6c-26.6-24.9-92.6-62.2-162.2-2.6c-69.6,59.7-141,27.4-166.9,2.6
	c-26.6-24.9-92.6-62.2-162.2-2.6c-69.6,59.7-141,27.4-166.9,2.6c-26.6-24.9-92.6-62.2-162.2-2.6s-141,27.4-166.9,2.6
	C631.6,4884.4,565.6,4847,496,4906.6z"/>
</svg>
