<?xml version="1.0" encoding="UTF-8"?>
<svg id="Capa_1" data-name="Capa 1" xmlns="http://www.w3.org/2000/svg" viewBox="0 0 9460.6 401.88">
  <defs>
    <style>
      .cls-1 {
        fill: #f5dded;
      }
    </style>
  </defs>
  <path class="cls-1" d="M496,74.66c-69.6-59.7-141-27.4-166.9-2.6-26.6,24.9-92.6,62.2-162.2,2.6S25.9,47.26,0,72.06V391.76H7078V74.66c-69.6-59.7-141-27.4-166.9-2.6-26.6,24.9-92.6,62.2-162.2,2.6-69.6-59.7-141-27.4-166.9-2.6-26.6,24.9-92.6,62.2-162.2,2.6-69.6-59.7-141-27.4-166.9-2.6-26.6,24.9-92.6,62.2-162.2,2.6-69.6-59.7-141-27.4-166.9-2.6-26.6,24.9-92.6,62.2-162.2,2.6-69.6-59.7-141-27.4-166.9-2.6-26.6,24.9-92.6,62.2-162.2,2.6-69.6-59.7-141-27.4-166.9-2.6-26.6,24.9-92.6,62.2-162.2,2.6-69.6-59.7-141-27.4-166.9-2.6-26.6,24.9-92.6,62.2-162.2,2.6-69.6-59.7-141-27.4-166.9-2.6-26.6,24.9-92.6,62.2-162.2,2.6-69.6-59.7-141-27.4-166.9-2.6-26.6,24.9-92.6,62.2-162.2,2.6-69.6-59.7-141-27.4-166.9-2.6-26.6,24.9-92.6,62.2-162.2,2.6-69.6-59.7-141-27.4-166.9-2.6-26.6,24.9-92.6,62.2-162.2,2.6-69.6-59.7-141-27.4-166.9-2.6-26.6,24.9-92.6,62.2-162.2,2.6-69.6-59.7-141-27.4-166.9-2.6-26.6,24.9-92.6,62.2-162.2,2.6-69.6-59.7-141-27.4-166.9-2.6-26.6,24.9-92.6,62.2-162.2,2.6-69.6-59.7-141-27.4-166.9-2.6-26.6,24.9-92.6,62.2-162.2,2.6-69.6-59.7-141-27.4-166.9-2.6-26.6,24.9-92.6,62.2-162.2,2.6-69.6-59.7-141-27.4-166.9-2.6-26.6,24.9-92.6,62.2-162.2,2.6-69.6-59.7-141-27.4-166.9-2.6-26.6,24.9-92.6,62.2-162.2,2.6-69.6-59.7-141-27.4-166.9-2.6-26.6,24.9-92.6,62.2-162.2,2.6s-141-27.4-166.9-2.6c-26.6,24.8-92.6,62.2-162.2,2.6Z"/>
  <path class="cls-1" d="M7429.26,74.66c-69.6-59.7-141-27.4-166.9-2.6-26.6,24.9-92.6,62.2-162.2,2.6s-141-27.4-166.9-2.6V391.76h7078V74.66c-69.6-59.7-141-27.4-166.9-2.6-26.6,24.9-92.6,62.2-162.2,2.6-69.6-59.7-141-27.4-166.9-2.6-26.6,24.9-92.6,62.2-162.2,2.6-69.6-59.7-141-27.4-166.9-2.6-26.6,24.9-92.6,62.2-162.2,2.6-69.6-59.7-141-27.4-166.9-2.6-26.6,24.9-92.6,62.2-162.2,2.6-69.6-59.7-141-27.4-166.9-2.6-26.6,24.9-92.6,62.2-162.2,2.6-69.6-59.7-141-27.4-166.9-2.6-26.6,24.9-92.6,62.2-162.2,2.6-69.6-59.7-141-27.4-166.9-2.6-26.6,24.9-92.6,62.2-162.2,2.6-69.6-59.7-141-27.4-166.9-2.6-26.6,24.9-92.6,62.2-162.2,2.6-69.6-59.7-141-27.4-166.9-2.6-26.6,24.9-92.6,62.2-162.2,2.6-69.6-59.7-141-27.4-166.9-2.6-26.6,24.9-92.6,62.2-162.2,2.6-69.6-59.7-141-27.4-166.9-2.6-26.6,24.9-92.6,62.2-162.2,2.6-69.6-59.7-141-27.4-166.9-2.6-26.6,24.9-92.6,62.2-162.2,2.6-69.6-59.7-141-27.4-166.9-2.6-26.6,24.9-92.6,62.2-162.2,2.6-69.6-59.7-141-27.4-166.9-2.6-26.6,24.9-92.6,62.2-162.2,2.6-69.6-59.7-141-27.4-166.9-2.6-26.6,24.9-92.6,62.2-162.2,2.6-69.6-59.7-141-27.4-166.9-2.6-26.6,24.9-92.6,62.2-162.2,2.6-69.6-59.7-141-27.4-166.9-2.6-26.6,24.9-92.6,62.2-162.2,2.6-69.6-59.7-141-27.4-166.9-2.6-26.6,24.9-92.6,62.2-162.2,2.6-69.6-59.7-141-27.4-166.9-2.6-26.6,24.9-92.6,62.2-162.2,2.6s-141-27.4-166.9-2.6c-26.6,24.8-92.6,62.2-162.2,2.6Z"/>
</svg>